<svg xmlns="http://www.w3.org/2000/svg" viewBox="0 0 128 128">
  <!-- Seamless Grass Ground - no visible borders -->
  <defs>
    <linearGradient id="grassBase" x1="0%" y1="0%" x2="100%" y2="100%">
      <stop offset="0%" style="stop-color:#2f5f22"/>
      <stop offset="25%" style="stop-color:#2a5520"/>
      <stop offset="50%" style="stop-color:#2d5a1f"/>
      <stop offset="75%" style="stop-color:#285018"/>
      <stop offset="100%" style="stop-color:#2f5f22"/>
    </linearGradient>
  </defs>
  
  <!-- Solid base -->
  <rect width="128" height="128" fill="#2a5520"/>
  
  <!-- Subtle noise texture using many small dots -->
  <g opacity="0.15">
    <circle cx="8" cy="12" r="2" fill="#3a7530"/>
    <circle cx="25" cy="8" r="1.5" fill="#1f4515"/>
    <circle cx="45" cy="15" r="2" fill="#3a7530"/>
    <circle cx="68" cy="5" r="1.5" fill="#1f4515"/>
    <circle cx="90" cy="18" r="2" fill="#3a7530"/>
    <circle cx="110" cy="10" r="1.5" fill="#1f4515"/>
    <circle cx="15" cy="35" r="1.5" fill="#1f4515"/>
    <circle cx="35" cy="40" r="2" fill="#3a7530"/>
    <circle cx="55" cy="32" r="1.5" fill="#1f4515"/>
    <circle cx="78" cy="42" r="2" fill="#3a7530"/>
    <circle cx="100" cy="38" r="1.5" fill="#1f4515"/>
    <circle cx="120" cy="45" r="2" fill="#3a7530"/>
    <circle cx="10" cy="60" r="2" fill="#3a7530"/>
    <circle cx="30" cy="68" r="1.5" fill="#1f4515"/>
    <circle cx="50" cy="55" r="2" fill="#3a7530"/>
    <circle cx="72" cy="65" r="1.5" fill="#1f4515"/>
    <circle cx="95" cy="58" r="2" fill="#3a7530"/>
    <circle cx="115" cy="70" r="1.5" fill="#1f4515"/>
    <circle cx="18" cy="85" r="1.5" fill="#1f4515"/>
    <circle cx="40" cy="90" r="2" fill="#3a7530"/>
    <circle cx="62" cy="82" r="1.5" fill="#1f4515"/>
    <circle cx="85" cy="95" r="2" fill="#3a7530"/>
    <circle cx="105" cy="88" r="1.5" fill="#1f4515"/>
    <circle cx="5" cy="105" r="2" fill="#3a7530"/>
    <circle cx="28" cy="115" r="1.5" fill="#1f4515"/>
    <circle cx="48" cy="108" r="2" fill="#3a7530"/>
    <circle cx="70" cy="118" r="1.5" fill="#1f4515"/>
    <circle cx="92" cy="110" r="2" fill="#3a7530"/>
    <circle cx="118" cy="120" r="1.5" fill="#1f4515"/>
  </g>
  
  <!-- Additional scattered variations -->
  <g opacity="0.1">
    <circle cx="22" cy="22" r="3" fill="#3f8035"/>
    <circle cx="65" cy="28" r="4" fill="#1a4010"/>
    <circle cx="108" cy="32" r="3" fill="#3f8035"/>
    <circle cx="38" cy="75" r="4" fill="#1a4010"/>
    <circle cx="88" cy="72" r="3" fill="#3f8035"/>
    <circle cx="12" cy="100" r="4" fill="#1a4010"/>
    <circle cx="60" cy="95" r="3" fill="#3f8035"/>
    <circle cx="102" cy="105" r="4" fill="#1a4010"/>
  </g>
</svg>
